<svg width="25" height="24" viewBox="0 0 25 24" fill="none" xmlns="http://www.w3.org/2000/svg">
<path fill-rule="evenodd" clip-rule="evenodd" d="M4.03006 1.99965H20.9701C21.3546 1.99431 21.7256 2.14198 22.0013 2.41016C22.2769 2.67835 22.4348 3.04508 22.4401 3.42965V20.5697C22.4348 20.9542 22.2769 21.321 22.0013 21.5891C21.7256 21.8573 21.3546 22.005 20.9701 21.9997H4.03006C3.64548 22.005 3.27454 21.8573 2.99886 21.5891C2.72317 21.321 2.56533 20.9542 2.56006 20.5697V3.42965C2.56533 3.04508 2.72317 2.67835 2.99886 2.41016C3.27454 2.14198 3.64548 1.99431 4.03006 1.99965ZM5.59007 18.7397H8.59007V9.73968H5.59007V18.7397ZM7.09005 8.47965C6.22848 8.47965 5.53005 7.78121 5.53005 6.91965C5.53005 6.05808 6.22848 5.35965 7.09005 5.35965C7.68956 5.29166 8.27499 5.57324 8.59612 6.08404C8.91725 6.59483 8.91725 7.24446 8.59612 7.75526C8.27499 8.26606 7.68956 8.54764 7.09005 8.47965ZM16.41 18.7396H19.41V13.5596C19.41 10.7896 17.96 9.49956 15.96 9.49956C14.8484 9.4585 13.8054 10.0358 13.25 10.9996V9.72956H10.25V18.7296H13.25V13.7296C13.2378 13.4821 13.2717 13.2346 13.35 12.9996C13.5844 12.3496 14.199 11.9146 14.89 11.9096C15.98 11.9096 16.41 12.6996 16.41 13.9096V18.7396Z" fill="white"/>
</svg>
