<svg width="25" height="24" viewBox="0 0 25 24" fill="none" xmlns="http://www.w3.org/2000/svg">
<path fill-rule="evenodd" clip-rule="evenodd" d="M22.59 5.57998C23.2365 6.858 23.5495 8.27864 23.5 9.70998V9.71007C23.5 10.3103 23.5 13.69 23.46 14.25C23.4733 15.4041 23.2977 16.5526 22.94 17.65C22.8191 18.0271 22.61 18.3699 22.33 18.65C21.9112 19.0595 21.3775 19.3316 20.8 19.43C17.17 19.71 14.1 19.76 10.6 19.71C8.42824 19.7564 6.25594 19.6461 4.10003 19.38C3.53641 19.2752 3.01729 19.0034 2.61003 18.6C2.26455 18.2123 2.0206 17.7451 1.90003 17.24C1.72952 16.5858 1.62896 15.9154 1.60003 15.24C1.45494 13.0824 1.45494 10.9175 1.60003 8.75998C1.60213 8.73471 1.60424 8.70935 1.60635 8.68389C1.70459 7.50044 1.81898 6.12251 2.70003 5.30998C3.10454 4.92683 3.61185 4.6697 4.16003 4.56998C6.93273 4.32208 9.71667 4.22194 12.5 4.26998C15.2936 4.22403 18.0875 4.32751 20.87 4.57998C21.5427 4.70169 22.1514 5.05558 22.59 5.57998ZM10.24 8.66004V14.85C11.2455 14.306 12.2793 13.7809 13.2669 13.2792C14.3125 12.748 15.3063 12.2432 16.16 11.77L10.24 8.66004Z" fill="white"/>
</svg>
